<svg data-v-0dd9719b="" version="1.0" xmlns="http://www.w3.org/2000/svg" xmlns:xlink="http://www.w3.org/1999/xlink" width="640" height="320" viewBox="0 0 300 160" preserveAspectRatio="xMidYMid meet" color-interpolation-filters="sRGB" style="margin: auto;">   <g data-v-0dd9719b="" fill="#333333" class="basesvg" transform="translate(102.23500061035156,90.04375076293945)"><g data-gra="path-name" fill-rule="" class="tp-name" transform="translate(0,0)"><g transform="scale(1)"><g><path d="M-0.33 5.66Q0.46 3.31 7.21-10.92L7.21-10.92Q17.16-32.5 20.54-39.91L20.54-39.91Q21.13-41.21 21.13-42.05L21.13-42.05Q21.13-43.48 19.24-43.48L19.24-43.48Q16.71-43.48 14.95-41.89 13.2-40.3 12.32-37.9 11.44-35.49 11.44-33.02L11.44-33.02Q11.44-31.66 11.7-29.9L11.7-29.9Q9.55-29.9 8.32-31.75 7.08-33.61 7.08-35.81L7.08-35.81Q7.08-38.48 9.1-41.05 11.12-43.62 14.27-45.21 17.42-46.8 20.48-46.8L20.48-46.8Q23.01-46.8 24.67-45.4 26.32-44.01 27.2-40.5 28.08-36.98 28.08-30.68L28.08-30.68Q28.08-26.13 27.37-16.57L27.37-16.57Q26.85-9.55 26.85-7.61L26.85-7.61Q28.8-13.46 32.37-20.67 35.95-27.89 39.49-34.03 43.03-40.17 45.05-43.16L45.05-43.16Q46.09-44.79 46.8-45.4 47.52-46.02 48.62-46.02L48.62-46.02Q49.53-46.02 51.48-45.3L51.48-45.3Q50.18-42.51 48.1-33.93 46.02-25.35 44.49-15.89 42.97-6.44 42.97-0.65L42.97-0.65Q42.97 1.36 43.16 2.34 43.36 3.31 43.71 4.26 44.07 5.2 44.27 5.66L44.27 5.66Q41.47 5.66 40.04 4.84 38.61 4.03 38.09 2.24 37.57 0.46 37.57-2.79L37.57-2.79Q37.57-9.29 38.97-16.57 40.37-23.86 43.09-34.38L43.09-34.38Q39-28.54 34.13-17.81 29.25-7.08 26.91-0.2L26.91-0.2 26.46-0.07Q26 0.13 25.55 0.13L25.55 0.13Q23.4 0.13 22.72-2.34 22.04-4.81 22.04-10.21L22.04-10.21Q22.04-13.52 22.3-21.32L22.3-21.32Q22.55-29.51 22.55-33.28L22.55-33.28 22.49-37.12 15.79-21.39Q10.99-9.95 8.61-4.78 6.24 0.39 4.13 3.02 2.02 5.66-0.33 5.66L-0.33 5.66ZM87.43 7.74Q84.63 7.74 82.09 6.37 79.56 5 76.44 2.54L76.44 2.54Q73.06 4.16 69.48 4.16L69.48 4.16Q66.43 4.16 64.71 3.12 62.98 2.08 62.37 0.75 61.75-0.58 61.75-1.69L61.75-1.69Q61.75-3.25 63.05-4.49 64.35-5.72 67.08-5.72L67.08-5.72Q69.55-5.72 71.86-4.75 74.17-3.77 77.81-1.69L77.81-1.69Q81.31-4.88 83.98-10.3 86.65-15.73 88.08-21.64 89.5-27.56 89.5-32.24L89.5-32.24Q89.5-37.77 87.33-40.95 85.15-44.13 80.6-44.13L80.6-44.13Q74.69-44.13 69.84-38.84 65-33.54 62.27-25.61 59.54-17.68 59.54-10.21L59.54-10.21Q59.54-6.7 60.32-3.71L60.32-3.71Q56.88-3.71 55.41-6.31 53.95-8.91 53.95-13.07L53.95-13.07Q53.95-21.19 57.49-29.02 61.04-36.86 67.15-41.83 73.25-46.8 80.6-46.8L80.6-46.8Q87.3-46.8 91.2-42.51 95.09-38.22 95.09-30.68L95.09-30.68Q95.09-25.41 93.21-19.6 91.33-13.78 88.04-8.61 84.76-3.45 80.67-0.13L80.67-0.13Q85.74 2.41 89.96 2.41L89.96 2.41Q91.39 2.41 92.2 2.18 93.02 1.95 93.15 1.89L93.15 1.89Q93.8 1.63 94.58 1.43L94.58 1.43Q92.69 7.74 87.43 7.74L87.43 7.74ZM68.31 2.21Q70.85 2.21 74.1 0.65L74.1 0.65Q71.83-1.24 70-2.24 68.19-3.25 66.37-3.25L66.37-3.25Q65.06-3.25 64.38-2.73 63.7-2.21 63.7-1.24L63.7-1.24Q63.7 0.07 64.84 1.14 65.98 2.21 68.31 2.21L68.31 2.21ZM113.94 5.66Q109.2 5.66 106.01 3.38 102.83 1.1 101.3-2.54 99.77-6.17 99.77-10.4L99.77-10.4Q99.77-18.79 103.9-27.27 108.03-35.75 114.46-41.24 120.9-46.73 127.4-46.73L127.4-46.73Q130.45-46.73 132.31-45.3 134.16-43.88 134.16-40.82L134.16-40.82Q134.16-38.22 132.96-34.84 131.75-31.46 129.9-29.09 128.05-26.71 126.16-26.71L126.16-26.71Q124.54-26.71 123.5-28.73L123.5-28.73Q125.97-31.46 128.28-35.23 130.58-39 130.58-41.34L130.58-41.34Q130.58-43.88 127.66-43.88L127.66-43.88Q123.11-43.88 118.01-38.35 112.91-32.83 109.49-24.77 106.08-16.71 106.08-9.81L106.08-9.81Q106.08-4.62 108.42-1.04 110.76 2.54 115.5 2.54L115.5 2.54Q118.88 2.54 122.39 0.62 125.91-1.3 128.83-4.49 131.75-7.67 133.51-11.38L133.51-11.38 135.2-10.27Q131.5-3.25 126 1.2 120.51 5.66 113.94 5.66L113.94 5.66Z" transform="translate(0.33000001311302185, 46.79999923706055)"></path></g> <!----> <!----> <!----> <!----> <!----> <!----> <!----></g></g> <g data-gra="path-slogan" fill-rule="" class="tp-slogan" fill="#333333" transform="translate(2.8849945068359375,60.540000915527344)"><rect width="0"></rect> <rect x="132.760009765625" width="0"></rect> <g transform="translate(0,0)"><g transform="scale(1)"><path d="M9.14-8.58L9.14 0L8.02 0L8.02-5.06Q8.02-5.77 8.02-7.22L8.02-7.22L5.58 0L4.41 0L2.02-7.22L1.97-7.22Q1.97-6.70 2.02-5.67L2.02-5.67Q2.02-5.16 2.02-5.06L2.02-5.06L2.02 0L0.84 0L0.84-8.58L2.53-8.58L5.02-1.31L7.45-8.58L9.14-8.58ZM16.48-8.58L13.24-3.47L13.24 0L12.07 0L12.07-3.47L8.84-8.58L10.19-8.58L12.63-4.45L15.12-8.58L16.48-8.58ZM23.27-1.08L22.38-1.78L22.99-2.48L24.07-1.64Q25.05-2.63 25.05-4.27L25.05-4.27Q24.87-7.64 22.05-7.83L22.05-7.83Q19.19-7.69 19.05-4.27L19.05-4.27Q19.19-0.94 22.05-0.80L22.05-0.80Q22.76-0.80 23.27-1.08L23.27-1.08ZM25.01-0.94L26.13-0.05L25.57 0.56L24.26-0.33Q23.41 0.14 22.05 0.14L22.05 0.14Q18.12 0 17.83-4.27L17.83-4.27Q18.07-8.72 22.05-8.81L22.05-8.81Q25.94-8.67 26.22-4.27L26.22-4.27Q26.18-2.20 25.01-0.94L25.01-0.94ZM31.97-3.19L31.97-8.58L33.14-8.58L33.14-3.05Q33.00 0.05 29.62 0.14L29.62 0.14Q26.48 0.05 26.34-2.86L26.34-2.86L26.34-8.58L27.51-8.58L27.51-3.19Q27.56-0.84 29.67-0.80L29.67-0.80Q31.97-0.84 31.97-3.19L31.97-3.19ZM39.30 0L38.46-2.48L34.99-2.48L34.10 0L32.93 0L36.16-8.58L37.47-8.58L40.57 0L39.30 0ZM36.72-7.31L35.36-3.52L38.04-3.52L36.77-7.31L36.72-7.31ZM41.71-8.58L46.03-1.64L46.03-8.58L47.15-8.58L47.15 0L45.84 0L41.48-6.94L41.43-6.94L41.43 0L40.31 0L40.31-8.58L41.71-8.58ZM49.85-7.59L46.94-7.59L46.94-8.58L53.88-8.58L53.88-7.59L50.97-7.59L50.97 0L49.85 0L49.85-7.59ZM59.29-3.19L59.29-8.58L60.46-8.58L60.46-3.05Q60.32 0.05 56.95 0.14L56.95 0.14Q53.81 0.05 53.67-2.86L53.67-2.86L53.67-8.58L54.84-8.58L54.84-3.19Q54.89-0.84 56.99-0.80L56.99-0.80Q59.29-0.84 59.29-3.19L59.29-3.19ZM69.20-8.58L69.20 0L68.08 0L68.08-5.06Q68.08-5.77 68.08-7.22L68.08-7.22L65.64 0L64.47 0L62.08-7.22L62.03-7.22Q62.03-6.70 62.08-5.67L62.08-5.67Q62.08-5.16 62.08-5.06L62.08-5.06L62.08 0L60.91 0L60.91-8.58L62.60-8.58L65.08-1.31L67.52-8.58L69.20-8.58ZM78.81-6.05L78.81-6.05L77.69-6.05Q77.27-7.78 75.30-7.83L75.30-7.83Q72.58-7.69 72.48-4.36L72.48-4.36Q72.48-0.80 75.34-0.80L75.34-0.80Q77.31-0.84 77.78-3.19L77.78-3.19L78.91-3.19Q78.39 0.05 75.11 0.14L75.11 0.14Q71.36 0 71.27-4.31L71.27-4.31Q71.45-8.63 75.30-8.81L75.30-8.81Q78.34-8.72 78.81-6.05ZM80.15-5.06L84.65-5.06L84.65-8.58L85.82-8.58L85.82 0L84.65 0L84.65-3.98L80.15-3.98L80.15 0L78.98 0L78.98-8.58L80.15-8.58L80.15-5.06ZM87.62-1.03L92.78-1.03L92.78 0L86.45 0L86.45-8.58L92.69-8.58L92.69-7.59L87.62-7.59L87.62-4.92L92.31-4.92L92.31-3.89L87.62-3.89L87.62-1.03ZM101.24-8.58L101.24 0L100.12 0L100.12-5.06Q100.12-5.77 100.12-7.22L100.12-7.22L97.68 0L96.51 0L94.12-7.22L94.07-7.22Q94.07-6.70 94.12-5.67L94.12-5.67Q94.12-5.16 94.12-5.06L94.12-5.06L94.12 0L92.94 0L92.94-8.58L94.63-8.58L97.12-1.31L99.55-8.58L101.24-8.58ZM101.83-8.58L103.00-8.58L103.00 0L101.83 0L101.83-8.58ZM109.96-6.09L109.96-6.09L108.88-6.09Q108.79-7.73 106.72-7.83L106.72-7.83Q104.80-7.78 104.80-6.33L104.80-6.33Q104.80-5.39 105.83-5.25L105.83-5.25L108.27-4.69Q110.19-4.22 110.19-2.34L110.19-2.34Q110.15 0.05 106.82 0.14L106.82 0.14Q104.99 0.14 104.24-0.61L104.24-0.61Q103.30-1.31 103.35-2.77L103.35-2.77L104.47-2.77Q104.52-0.80 106.82-0.75L106.82-0.75Q109.07-0.80 109.11-2.20L109.11-2.20Q109.30-3.38 107.24-3.75L107.24-3.75L105.46-4.13Q103.63-4.64 103.63-6.19L103.63-6.19Q103.77-8.72 106.63-8.81L106.63-8.81Q109.86-8.81 109.96-6.09ZM112.56-7.59L109.65-7.59L109.65-8.58L116.59-8.58L116.59-7.59L113.68-7.59L113.68 0L112.56 0L112.56-7.59ZM120.46-3.70L117.64-3.70L117.64 0L116.47 0L116.47-8.58L120.46-8.58Q123.32-8.58 123.32-6.28L123.32-6.28Q123.32-4.88 122.10-4.22L122.10-4.22Q123.13-3.94 123.13-2.58L123.13-2.58L123.22-1.03Q123.18-0.38 123.64-0.19L123.64-0.19L123.64 0L122.19 0Q122.05-0.61 122.00-2.16L122.00-2.16Q122.05-3.70 120.46-3.70L120.46-3.70ZM120.55-7.64L117.64-7.64L117.64-4.69L120.36-4.69Q122.10-4.69 122.10-6.19L122.10-6.19Q122.10-7.64 120.55-7.64L120.55-7.64ZM130.60-8.58L127.37-3.47L127.37 0L126.20 0L126.20-3.47L122.96-8.58L124.32-8.58L126.76-4.45L129.25-8.58L130.60-8.58Z" transform="translate(-0.84375, 8.8125)"></path></g></g></g></g><defs v-gra="od"></defs></svg>